<svg xmlns="http://www.w3.org/2000/svg" viewBox="0 0 400 400">
<rect width="400" height="400" fill="#fff"/>
<rect x="118" y="150" width="76" height="150" rx="14" fill="#f2a3bd"/>
<rect x="134" y="120" width="44" height="30" rx="8" fill="#d4537e"/>
<rect x="130" y="196" width="52" height="62" rx="9" fill="#fff" opacity=".9"/>
<path d="M146 232c0-14 20-14 20 0 0 7-5 10-10 10s-10-3-10-10z" fill="#e87ba1"/>
<circle cx="156" cy="216" r="6" fill="#f4c2d3"/>
<rect x="222" y="106" width="22" height="36" rx="6" fill="#993556"/>
<rect x="212" y="142" width="42" height="158" rx="12" fill="#f7c9d8"/>
<rect x="212" y="206" width="42" height="60" fill="#fff" opacity=".85"/>
<circle cx="233" cy="236" r="11" fill="#e87ba1"/>
<circle cx="304" cy="262" r="30" fill="#f2a3bd"/>
<circle cx="304" cy="262" r="18" fill="#fbe3ec"/>
</svg>
