<svg xmlns="http://www.w3.org/2000/svg" viewBox="0 0 400 400">
<rect width="400" height="400" fill="#fff"/>
<rect x="130" y="86" width="140" height="22" rx="9" fill="#c96f2d"/>
<rect x="120" y="106" width="160" height="204" rx="16" fill="#f5a85a"/>
<path d="M120 240h160v54a16 16 0 0 1-16 16H136a16 16 0 0 1-16-16z" fill="#fce9d2"/>
<g fill="#e8833b"><circle cx="150" cy="262" r="9"/><circle cx="176" cy="278" r="9"/><circle cx="202" cy="260" r="9"/><circle cx="228" cy="277" r="9"/><circle cx="252" cy="261" r="9"/><circle cx="163" cy="293" r="9"/><circle cx="216" cy="294" r="9"/><circle cx="243" cy="293" r="9"/></g>
<rect x="146" y="140" width="108" height="74" rx="12" fill="#fff" opacity=".9"/>
<g fill="#f0964e"><circle cx="178" cy="170" r="11"/><circle cx="205" cy="184" r="11"/><circle cx="226" cy="166" r="11"/></g>
</svg>
