<svg xmlns="http://www.w3.org/2000/svg" viewBox="0 0 400 400">
<rect width="400" height="400" fill="#fff"/>
<path d="M84 200c34-44 88-70 140-58 44 10 70 34 80 58-10 24-36 48-80 58-52 12-106-14-140-58z" fill="#6db3e8"/>
<path d="M304 200l52-44c8 30 8 58 0 88z" fill="#4a8fd6"/>
<path d="M150 152c10 22 10 74 0 96M196 144c12 26 12 86 0 112" stroke="#4a8fd6" stroke-width="7" fill="none" stroke-linecap="round"/>
<path d="M226 142c-10 12-26 18-40 16 6-16 22-26 40-16z" fill="#4a8fd6"/>
<circle cx="124" cy="190" r="10" fill="#22303f"/>
<circle cx="127" cy="187" r="3.5" fill="#fff"/>
<path d="M96 214c10 8 24 12 36 10" stroke="#4a8fd6" stroke-width="6" fill="none" stroke-linecap="round"/>
</svg>
