<svg xmlns="http://www.w3.org/2000/svg" viewBox="0 0 400 400">
<rect width="400" height="400" fill="#fff"/>
<path d="M196 96h64v22h-46v18h-18z" fill="#8d99a8"/>
<rect x="186" y="134" width="40" height="26" rx="6" fill="#aab6c4"/>
<path d="M158 160h96c12 24 18 50 18 76 0 46-30 70-66 70s-66-24-66-70c0-26 6-52 18-76z" fill="#5dcaa5"/>
<rect x="158" y="208" width="96" height="58" rx="10" fill="#fff" opacity=".9"/>
<path d="M186 230c6-12 22-14 30-4 10-8 24-2 26 10 10 2 10 16-2 16h-48c-12 0-14-16-6-22z" fill="#9fe1cb"/>
</svg>
