<svg xmlns="http://www.w3.org/2000/svg" viewBox="0 0 400 400">
<rect width="400" height="400" fill="#fff"/>
<rect x="156" y="86" width="88" height="34" rx="10" fill="#a8742c"/>
<path d="M146 120h108v14c14 12 22 28 22 48v74a44 44 0 0 1-44 44h-64a44 44 0 0 1-44-44v-74c0-20 8-36 22-48z" fill="#f2b343"/>
<path d="M124 208h152v48a44 44 0 0 1-44 44h-64a44 44 0 0 1-44-44z" fill="#e09a26" opacity=".6"/>
<rect x="152" y="170" width="96" height="84" rx="12" fill="#fff" opacity=".92"/>
<path d="M178 222c0-22 44-22 44 0 0 10-8 16-22 16s-22-6-22-16z" fill="#eaa832"/>
<circle cx="200" cy="198" r="11" fill="#f6c96b"/>
</svg>
