<svg xmlns="http://www.w3.org/2000/svg" viewBox="0 0 400 400">
<rect width="400" height="400" fill="#fff"/>
<rect x="120" y="186" width="56" height="118" rx="12" fill="#3b3a4a"/>
<rect x="128" y="160" width="40" height="30" rx="6" fill="#5a5870"/>
<path d="M134 160v-44c0-10 28-10 28 0l4 44z" fill="#d4537e"/>
<rect x="226" y="196" width="58" height="108" rx="14" fill="#f2a3bd"/>
<rect x="240" y="168" width="30" height="32" rx="7" fill="#993556"/>
<circle cx="255" cy="250" r="17" fill="#fbe3ec"/>
<path d="M306 130c20-22 48-6 40 18-6 18-28 30-40 34-12-4-34-16-40-34-8-24 20-40 40-18z" fill="#e87ba1" transform="translate(-156 -22) scale(.62)"/>
</svg>
