<svg xmlns="http://www.w3.org/2000/svg" viewBox="0 0 400 400">
<rect width="400" height="400" fill="#fff"/>
<g transform="rotate(-34 200 200)">
<path d="M150 120c44-22 96-10 112 28 14 34-4 70-40 84-26 10-50 8-72-2l-22 56c-4 10-20 8-22-2l-4-50a52 52 0 0 1 48-114z" fill="#d9886a" transform="translate(6 -4)"/>
<path d="M168 152c30-12 62-4 72 20 8 22-4 44-28 54-18 8-36 6-52-2" fill="#f3c4ae" opacity=".75"/>
<rect x="106" y="278" width="20" height="58" rx="10" fill="#f6e8de"/>
<circle cx="104" cy="340" r="13" fill="#f6e8de"/>
<circle cx="130" cy="340" r="13" fill="#f6e8de"/>
</g>
</svg>
