<svg xmlns="http://www.w3.org/2000/svg" viewBox="0 0 400 400">
<rect width="400" height="400" fill="#fff"/>
<path d="M158 96l-46 30 18 38 16-8v152h108V156l16 8 18-38-46-30-20 10a36 16 0 0 1-48 0z" fill="#2f8f8f"/>
<path d="M158 96l-46 30 18 38 16-8z" fill="#257575"/>
<path d="M242 96l46 30-18 38-16-8z" fill="#257575"/>
<path d="M186 104h28v100" stroke="#1d5f5f" stroke-width="5" fill="none"/>
<circle cx="200" cy="130" r="4" fill="#f6d28c"/><circle cx="200" cy="156" r="4" fill="#f6d28c"/><circle cx="200" cy="182" r="4" fill="#f6d28c"/>
<path d="M146 308h108" stroke="#257575" stroke-width="8"/>
</svg>
