<svg xmlns="http://www.w3.org/2000/svg" viewBox="0 0 400 400">
<rect width="400" height="400" fill="#fff"/>
<path d="M112 222h176l-14 64a22 22 0 0 1-21 17H147a22 22 0 0 1-21-17z" fill="#d4537e"/>
<path d="M106 210c0-10 8-16 18-16h152c10 0 18 6 18 16s-8 16-18 16H124c-10 0-18-6-18-16z" fill="#e87ba1"/>
<circle cx="156" cy="172" r="26" fill="#f6f0e4"/>
<circle cx="206" cy="160" r="30" fill="#fdf8ee"/>
<circle cx="252" cy="176" r="24" fill="#f2e9d8"/>
<g fill="#e7d8bd"><circle cx="148" cy="166" r="4"/><circle cx="200" cy="154" r="4"/><circle cx="214" cy="168" r="4"/><circle cx="258" cy="170" r="4"/></g>
<path d="M196 138c4-8 12-12 20-12" stroke="#d9c89e" stroke-width="5" fill="none" stroke-linecap="round"/>
</svg>
