<svg xmlns="http://www.w3.org/2000/svg" viewBox="0 0 400 400">
<rect width="400" height="400" fill="#fff"/>
<g transform="rotate(-42 170 200)">
<rect x="150" y="96" width="40" height="58" rx="8" fill="#8d99a8"/>
<rect x="162" y="154" width="16" height="150" rx="8" fill="#c98a2d"/>
</g>
<g transform="rotate(40 252 198)">
<path d="M252 96a40 40 0 0 0-30 66l-2 6h64l-2-6a40 40 0 0 0-30-66zm0 24a16 16 0 1 1-16 16" fill="#aab6c4"/>
<path d="M252 120a16 16 0 1 0 16 16l-4 10h-24l-4-10a16 16 0 0 1 16-16z" fill="#fff"/>
<rect x="240" y="166" width="24" height="140" rx="10" fill="#8d99a8"/>
</g>
</svg>
