<svg xmlns="http://www.w3.org/2000/svg" viewBox="0 0 400 400">
<rect width="400" height="400" fill="#fff"/>
<g transform="rotate(38 170 220)">
<path d="M170 130c22 0 34 18 30 58l-14 96c-2 14-30 14-32 0l-14-96c-4-40 8-58 30-58z" fill="#f2913d"/>
<path d="M156 170h32M158 210h28M162 250h22" stroke="#d9742a" stroke-width="6" stroke-linecap="round"/>
<path d="M162 128c-2-18 4-30 8-38M178 128c4-16 14-24 24-28M170 126c0-14 0-24 0-34" stroke="#3a7d44" stroke-width="9" fill="none" stroke-linecap="round"/>
</g>
<path d="M268 230c-34 0-50-26-44-56 26-8 52 2 60 28 16-4 30 2 36 16-12 14-32 16-52 12z" fill="#54a460"/>
<path d="M232 180c20 18 40 30 72 36" stroke="#2f6637" stroke-width="6" fill="none" stroke-linecap="round"/>
</svg>
