<?xml version="1.0" encoding="UTF-8"?>
<svg version="1.1" xmlns="http://www.w3.org/2000/svg" width="192" height="192">
<path d="M0 0 C1.03729248 -0.00426498 2.07458496 -0.00852997 3.14331055 -0.01292419 C4.84212372 -0.01224442 4.84212372 -0.01224442 6.57525635 -0.0115509 C7.77243286 -0.01490952 8.96960937 -0.01826813 10.20306396 -0.02172852 C13.48426123 -0.02960074 16.76542051 -0.03290615 20.04662609 -0.0335443 C22.09904183 -0.03425576 24.15145096 -0.03639195 26.20386505 -0.03904152 C33.37128621 -0.04829213 40.53868879 -0.05237694 47.70611572 -0.05158997 C54.37483097 -0.0509899 61.04346513 -0.06152846 67.71215987 -0.07733363 C73.44650455 -0.09043732 79.18082283 -0.09577265 84.91518235 -0.09513456 C88.33595775 -0.09488031 91.75666115 -0.09769043 95.17742157 -0.10831261 C98.99760126 -0.11812407 102.81757322 -0.1152295 106.63775635 -0.10920715 C107.76220154 -0.11482666 108.88664673 -0.12044617 110.04516602 -0.12623596 C116.02103559 -0.10233134 121.1427532 0.39204392 126.86529541 2.13371277 C127.81404541 2.42246277 128.76279541 2.71121277 129.74029541 3.00871277 C132.37207457 4.40200762 132.55755718 5.51351523 133.86529541 8.13371277 C134.97777709 9.43384196 136.12618839 10.70381697 137.30279541 11.94621277 C142.88298174 18.18766859 144.97051789 24.78456141 145.01246643 33.14070129 C145.02319939 34.61647141 145.02319939 34.61647141 145.03414917 36.12205505 C145.03683807 37.19018433 145.03952698 38.2583136 145.04229736 39.35881042 C145.04886856 40.49279266 145.05543976 41.6267749 145.06221008 42.79512024 C145.08191158 46.54600596 145.09359929 50.29685168 145.10357666 54.04777527 C145.10765219 55.3313026 145.11172771 56.61482994 145.11592674 57.93725204 C145.13462737 64.03213585 145.14919529 70.12699973 145.15753871 76.2219063 C145.16729636 83.2321918 145.19358367 90.24216031 145.2340396 97.25233424 C145.267975 103.34399672 145.27969489 109.43552718 145.2837429 115.5272789 C145.28860207 118.10833764 145.30019678 120.68939315 145.3187809 123.27038956 C145.34323022 126.8912628 145.34219605 130.51131674 145.33526611 134.13224792 C145.3544812 135.71622375 145.3544812 135.71622375 145.37408447 137.3321991 C145.32316757 144.67051053 143.63299459 150.3826766 140.86529541 157.13371277 C140.53529541 158.30933777 140.20529541 159.48496277 139.86529541 160.69621277 C138.64621763 163.66771486 137.71333981 163.88769334 134.86529541 165.13371277 C134.55592041 165.77308777 134.24654541 166.41246277 133.92779541 167.07121277 C132.42927141 169.98011231 130.81139196 170.75886771 127.86529541 172.13371277 C125.54497736 172.54805528 123.20890456 172.88261179 120.86529541 173.13371277 C120.07123826 173.30355053 119.27718111 173.47338829 118.45906162 173.64837265 C115.86365872 174.13401902 113.50264863 174.26492382 110.86503601 174.27415466 C109.88263443 174.27986481 108.90023285 174.28557495 107.88806152 174.29145813 C106.8215033 174.29257599 105.75494507 174.29369385 104.65606689 174.29484558 C103.52369095 174.29981049 102.391315 174.30477539 101.22462463 174.30989075 C97.47853994 174.32449382 93.73249764 174.33131238 89.98638916 174.33683777 C87.37669372 174.34259205 84.76699828 174.34834975 82.15730286 174.35411072 C77.38168516 174.36367548 72.60607656 174.36957584 67.83045048 174.37260747 C60.82872266 174.37707796 53.82719105 174.39458212 46.82552284 174.42360806 C40.73920613 174.44795234 34.6529695 174.45555783 28.56660652 174.45728302 C25.9891764 174.46029879 23.41174688 174.46829073 20.83434868 174.4814682 C17.21617934 174.49864187 13.5984799 174.49662031 9.98028564 174.49015808 C8.40170273 174.50398026 8.40170273 174.50398026 6.79122925 174.51808167 C-2.1855461 174.46819541 -10.93043105 172.9114448 -19.13470459 169.13371277 C-20.57220459 167.00871277 -20.57220459 167.00871277 -22.13470459 164.13371277 C-23.60740024 162.22859126 -25.10924975 160.35230214 -26.63470459 158.48918152 C-31.25300417 151.23700796 -31.57314784 144.56034155 -31.53875732 136.1849823 C-31.54562057 135.00994141 -31.55248383 133.83490051 -31.55955505 132.62425232 C-31.5777983 128.7548857 -31.57398861 124.88592552 -31.56829834 121.01652527 C-31.5707769 118.99957488 -31.57512461 116.98263436 -31.57965142 114.96568763 C-31.59366643 108.62891066 -31.59216123 102.29226858 -31.58074951 95.95549011 C-31.56927644 89.44111572 -31.58333684 82.92715343 -31.61014599 76.41283333 C-31.63237546 70.7989448 -31.63892399 65.18518494 -31.63306957 59.57125556 C-31.62971532 56.22747661 -31.63374407 52.88417146 -31.6493206 49.54039383 C-31.66426151 45.80703175 -31.65352887 42.07456704 -31.63641357 38.3412323 C-31.64608154 37.24896332 -31.65574951 36.15669434 -31.66571045 35.03132629 C-31.58193231 26.26760921 -29.00034854 19.85710781 -25.13470459 12.13371277 C-24.84079834 11.45695496 -24.54689209 10.78019714 -24.24407959 10.08293152 C-22.16969882 6.43815685 -18.67517858 4.26063931 -15.13470459 2.13371277 C-11.88470459 1.32121277 -11.88470459 1.32121277 -9.13470459 1.13371277 C-8.21848139 0.88454873 -8.21848139 0.88454873 -7.28374863 0.63035107 C-4.79596079 0.05542999 -2.55382937 0.00475356 0 0 Z " fill="#FDFEFE" transform="translate(39.13470458984375,9.866287231445313)"/>
<path d="M0 0 C0.82951172 -0.02900391 1.65902344 -0.05800781 2.51367188 -0.08789062 C8.426216 -0.14855603 11.84963499 0.86783786 16.6875 4.3125 C18.94472277 8.82694554 18.2468766 14.50979288 16.79296875 19.1953125 C15.82184803 21.60424094 14.80480779 23.96814883 13.6875 26.3125 C14.55375 26.4775 15.42 26.6425 16.3125 26.8125 C21.41105739 29.0785255 24.2221898 33.3818796 26.6875 38.3125 C27.65170315 47.54130156 26.43379774 55.27461396 21.6875 63.3125 C19.76764543 65.54685397 18.22334855 66.73463868 15.6875 68.3125 C15.0275 68.3125 14.3675 68.3125 13.6875 68.3125 C13.6875 68.9725 13.6875 69.6325 13.6875 70.3125 C14.533125 70.51875 15.37875 70.725 16.25 70.9375 C22.09525252 73.27560101 26.19773692 76.74803493 29.125 82.375 C31.84356209 89.3120205 31.86061944 97.52690828 29.625 104.625 C26.10642231 112.33003355 21.23726241 116.44112123 13.47117615 119.46514893 C9.05214776 120.81030125 4.89987942 120.76285989 0.31640625 120.640625 C-1.6608048 120.63561492 -3.63801901 120.63174617 -5.61523438 120.62890625 C-8.66913097 120.60211555 -11.72174728 120.56307002 -14.77514648 120.50146484 C-28.97011933 120.25459575 -39.59193709 121.99622948 -52.32394409 128.37684631 C-63.15375871 133.47248176 -74.45079104 134.51635167 -86.25 134.625 C-87.29607422 134.65400391 -88.34214844 134.68300781 -89.41992188 134.71289062 C-95.88397947 134.76570819 -100.98435661 134.19738016 -106.3125 130.3125 C-108.88013449 127.35972033 -110.09217588 125.30395856 -110.9375 121.5 C-108.79251166 110.56055949 -98.23386653 102.61276365 -89.54882812 96.72094727 C-79.95435681 90.36285625 -70.27872437 85.08842642 -59.625 80.75 C-58.75093506 80.39091553 -57.87687012 80.03183105 -56.97631836 79.66186523 C-55.74473999 79.17762085 -55.74473999 79.17762085 -54.48828125 78.68359375 C-53.38867065 78.2493811 -53.38867065 78.2493811 -52.2668457 77.80639648 C-50.3125 77.3125 -50.3125 77.3125 -47.3125 78.3125 C-48.51003906 78.78558594 -49.70757812 79.25867188 -50.94140625 79.74609375 C-69.54053456 87.24026208 -87.52318891 96.73885057 -100.25 112.75 C-101.83382204 116.56980609 -101.77903904 119.18029706 -101.3125 123.3125 C-98.86228992 126.10817051 -97.18572383 126.32912005 -93.46875 126.81640625 C-91.91721093 126.86191087 -90.36469904 126.87971984 -88.8125 126.875 C-87.56412354 126.87137451 -87.56412354 126.87137451 -86.29052734 126.86767578 C-71.464313 126.44343587 -58.63169094 120.45981889 -45.3125 114.3125 C-44.9825 95.5025 -44.6525 76.6925 -44.3125 57.3125 C-47.2825 56.6525 -50.2525 55.9925 -53.3125 55.3125 C-57.33319053 53.53866594 -60.48064087 51.30033272 -63.3125 47.9375 C-64.97167319 43.58217036 -65.16440864 40.36954768 -63.3515625 35.9921875 C-53.53800195 17.89666256 -32.23056016 7.25558365 -13.3125 1.3125 C-8.87366567 0.05282323 -4.58874222 0.05274416 0 0 Z " fill="#0A67EA" transform="translate(128.3125,26.6875)"/>
<path d="M0 0 C5.62718063 1.07184393 7.67148001 3.65691633 10.80078125 8.125 C14.13952199 13.34518095 13.57518308 18.97364999 13 25 C11.03973095 32.2496157 8.47709407 37.96980813 2 42 C1.34 42 0.68 42 0 42 C0 42.66 0 43.32 0 44 C0.845625 44.20625 1.69125 44.4125 2.5625 44.625 C8.40775252 46.96310101 12.51023692 50.43553493 15.4375 56.0625 C18.15606209 62.9995205 18.17311944 71.21440828 15.9375 78.3125 C12.41892231 86.01753355 7.54976241 90.12862123 -0.21632385 93.15264893 C-4.63535224 94.49780125 -8.78762058 94.45035989 -13.37109375 94.328125 C-15.3483048 94.32311492 -17.32551901 94.31924617 -19.30273438 94.31640625 C-22.35663097 94.28961555 -25.40924728 94.25057002 -28.46264648 94.18896484 C-42.65761933 93.94209575 -53.27943709 95.68372948 -66.01144409 102.06434631 C-76.84125871 107.15998176 -88.13829104 108.20385167 -99.9375 108.3125 C-101.50661133 108.35600586 -101.50661133 108.35600586 -103.10742188 108.40039062 C-109.57147947 108.45320819 -114.67185661 107.88488016 -120 104 C-122.56763449 101.04722033 -123.77967588 98.99145856 -124.625 95.1875 C-122.48001166 84.24805949 -111.92136653 76.30026365 -103.23632812 70.40844727 C-93.64185681 64.05035625 -83.96622437 58.77592642 -73.3125 54.4375 C-72.43843506 54.07841553 -71.56437012 53.71933105 -70.66381836 53.34936523 C-69.43223999 52.86512085 -69.43223999 52.86512085 -68.17578125 52.37109375 C-67.07617065 51.9368811 -67.07617065 51.9368811 -65.9543457 51.49389648 C-64 51 -64 51 -61 52 C-62.19753906 52.47308594 -63.39507812 52.94617188 -64.62890625 53.43359375 C-83.22803456 60.92776208 -101.21068891 70.42635057 -113.9375 86.4375 C-115.52132204 90.25730609 -115.46653904 92.86779706 -115 97 C-112.54978992 99.79567051 -110.87322383 100.01662005 -107.15625 100.50390625 C-105.60471108 100.54941581 -104.05219904 100.56721936 -102.5 100.5625 C-101.66702393 100.56008301 -100.83404785 100.55766602 -99.97583008 100.55517578 C-85.6786997 100.14634278 -70.6004658 94.6508023 -58 88 C-57.67 87.34 -57.34 86.68 -57 86 C-56.071875 85.62875 -55.14375 85.2575 -54.1875 84.875 C-41.50980296 79.66392208 -28.60750496 69.46366228 -21.94921875 57.40625 C-20.49797598 53.72737945 -20.56600252 50.90597728 -21 47 C-21.96421875 46.96261719 -22.9284375 46.92523438 -23.921875 46.88671875 C-25.81679687 46.78810547 -25.81679687 46.78810547 -27.75 46.6875 C-29.62945312 46.60048828 -29.62945312 46.60048828 -31.546875 46.51171875 C-35.03076463 45.99544099 -36.47889796 45.3746744 -39 43 C-38 42 -38 42 -35.49609375 41.90234375 C-34.48675781 41.91394531 -33.47742188 41.92554688 -32.4375 41.9375 C-31.42558594 41.94652344 -30.41367188 41.95554688 -29.37109375 41.96484375 C-28.58863281 41.97644531 -27.80617188 41.98804688 -27 42 C-27 41.34 -27 40.68 -27 40 C-25.53240234 40.05220703 -25.53240234 40.05220703 -24.03515625 40.10546875 C-11.20683745 40.41587948 -11.20683745 40.41587948 -0.125 34.625 C5.16819045 28.08635297 5.82268614 23.29447947 5 15 C3.34756181 10.21662629 0.70270718 7.40248768 -3 4 C-2.01 2.68 -1.02 1.36 0 0 Z " fill="#096BE9" transform="translate(142,53)"/>
<path d="M0 0 C12.21 0 24.42 0 37 0 C30.78658062 6.21341938 25.90134418 10.44366599 17 11 C17 9.35 17 7.7 17 6 C14.24331998 9.95523655 13.4682121 13.22423661 13 18 C24.41752957 19.13670095 33.39511436 14.81362287 42.16015625 7.74609375 C44.03604137 5.96579513 45.5157488 4.11309283 47 2 C51.42326378 3.35155282 53.40412982 5.19890438 56 9 C57.89666047 14.68998142 58.18887258 21.02562507 55.94140625 26.6484375 C52.22122191 32.71768133 47.77871826 35.59505683 41.046875 37.57421875 C34.02879025 39.03408752 28.43899846 38.04907371 21.99609375 35.15234375 C17.35709591 33.36811381 12.55818635 32.37716319 7.71264648 31.30761719 C2.15799194 30.07899597 2.15799194 30.07899597 0 29 C0 19.43 0 9.86 0 0 Z " fill="#F9FCFE" transform="translate(91,56)"/>
<path d="M0 0 C6.98390163 -0.60729579 13.20243635 1.22395758 18.90234375 5.390625 C23.71141068 9.85870674 25.05778214 14.39186005 25.375 20.875 C25.21199126 27.65005065 22.94092816 32.01495984 18.25 36.8125 C9.68393456 42.57812097 2.0796788 42.38001101 -8 42.1875 C-9.36066226 42.17242476 -10.72134069 42.15874138 -12.08203125 42.14648438 C-15.38843843 42.11130983 -18.69400684 42.06208288 -22 42 C-18.86167457 38.75538548 -15.68868294 35.93096938 -12.0625 33.25 C-7.18012882 29.39932035 -4.05066163 25.37641357 -1 20 C-0.38125 19.01 0.2375 18.02 0.875 17 C2.78515631 11.90624985 2.68178166 7.08795635 1 1.9375 C0.67 1.298125 0.34 0.65875 0 0 Z " fill="#FAFCFE" transform="translate(127,99)"/>
<path d="M0 0 C4.25414623 -0.02465622 8.50825498 -0.04283899 12.76245117 -0.05493164 C14.21070073 -0.05997101 15.65894517 -0.06680253 17.10717773 -0.07543945 C19.18474588 -0.08752247 21.26224697 -0.09323211 23.33984375 -0.09765625 C24.59144287 -0.10289307 25.84304199 -0.10812988 27.13256836 -0.11352539 C30 0 30 0 31 1 C31.95867589 8.53245342 29.4516958 13.01323669 25 19 C18.08174275 27.45564775 7.66505629 34.97005063 -2 40 C-2.66 39.67 -3.32 39.34 -4 39 C-3.01 38.34 -2.02 37.68 -1 37 C-0.66228483 34.16975238 -0.51096665 31.54756033 -0.48828125 28.7109375 C-0.47033005 27.89251373 -0.45237885 27.07408997 -0.43388367 26.23086548 C-0.37962486 23.61229636 -0.34583596 20.99391106 -0.3125 18.375 C-0.27934057 16.60153683 -0.24485221 14.82809796 -0.20898438 13.0546875 C-0.12388981 8.70325736 -0.0571536 4.35188321 0 0 Z " fill="#FAFBFE" transform="translate(91,99)"/>
<path d="M0 0 C0.6875963 6.30296611 -0.38612386 9.90241439 -4.03326416 15.09689331 C-7.02256097 17.9894784 -9.49442626 18.02272317 -13.54074097 18.01966858 C-14.49409332 17.97321701 -15.44744568 17.92676544 -16.4296875 17.87890625 C-17.42001984 17.86617172 -18.41035217 17.85343719 -19.43069458 17.84031677 C-22.58133079 17.79009275 -25.7261182 17.67722782 -28.875 17.5625 C-31.01554155 17.51733885 -33.15617379 17.47627711 -35.296875 17.43945312 C-40.53323184 17.34044148 -45.76619823 17.19003018 -51 17 C-39.10951887 7.40510769 -15.85629887 -8.9036488 0 0 Z " fill="#FAFCFE" transform="translate(142,33)"/>
<path d="M0 0 C0 8.58 0 17.16 0 26 C-4.8872267 25.02255466 -7.10437998 23.92171502 -11 21 C-12.60745059 17.78509882 -12.40305242 15.5698929 -12 12 C-9.7195563 8.01108056 -4.9130701 0 0 0 Z " fill="#F2F5FD" transform="translate(84,56)"/>
<path d="M0 0 C40.92 0 81.84 0 124 0 C124 0.33 124 0.66 124 1 C83.08 1 42.16 1 0 1 C0 0.67 0 0.34 0 0 Z " fill="#FFFFFF" transform="translate(34,8)"/>
<path d="M0 0 C0.33 0 0.66 0 1 0 C1 40.26 1 80.52 1 122 C0.67 122 0.34 122 0 122 C0 81.74 0 41.48 0 0 Z " fill="#FFFFFF" transform="translate(6,36)"/>
<path d="M0 0 C39.27 0 78.54 0 119 0 C119 0.33 119 0.66 119 1 C79.73 1 40.46 1 0 1 C0 0.67 0 0.34 0 0 Z " fill="#FFFFFF" transform="translate(36,185)"/>
<path d="M0 0 C0.33 0 0.66 0 1 0 C1 38.94 1 77.88 1 118 C0.67 118 0.34 118 0 118 C0 79.06 0 40.12 0 0 Z " fill="#FFFFFF" transform="translate(185,38)"/>
<path d="M0 0 C7.88416983 1.35258896 15.39353334 3.54399352 23 6 C23 6.33 23 6.66 23 7 C15.41 7 7.82 7 0 7 C0 4.69 0 2.38 0 0 Z " fill="#F2F6FD" transform="translate(91,87)"/>
<path d="M0 0 C-1.19753906 0.47308594 -2.39507812 0.94617188 -3.62890625 1.43359375 C-16.72350743 6.71304298 -28.29679163 13.13884339 -40 21 C-40 20.34 -40 19.68 -40 19 C-40.66 18.67 -41.32 18.34 -42 18 C-32.30731036 12.00260682 -22.59533213 6.50215093 -12 2.25 C-11.14631836 1.90324219 -10.29263672 1.55648437 -9.41308594 1.19921875 C-3.39144444 -1.13048148 -3.39144444 -1.13048148 0 0 Z " fill="#1B69F2" transform="translate(81,105)"/>
<path d="M0 0 C7.56198897 -0.44701413 12.76335625 -0.53574091 19 4 C18.34 7.3 17.68 10.6 17 14 C16.67 14 16.34 14 16 14 C15.67 11.36 15.34 8.72 15 6 C11.71480525 4.90493508 9.26336585 4.90039392 5.8125 4.9375 C4.72582031 4.94652344 3.63914063 4.95554687 2.51953125 4.96484375 C1.68808594 4.97644531 0.85664062 4.98804688 0 5 C0 3.35 0 1.7 0 0 Z " fill="#0A9FFB" transform="translate(126,27)"/>
<path d="M0 0 C2.97 0 5.94 0 9 0 C8.67 1.32 8.34 2.64 8 4 C10.31 4 12.62 4 15 4 C15 4.33 15 4.66 15 5 C14.11328613 5.0093457 13.22657227 5.01869141 12.31298828 5.02832031 C8.97630147 5.07272241 5.64082529 5.13450388 2.3046875 5.20751953 C0.86958271 5.23548864 -0.56566924 5.25682103 -2.00097656 5.27099609 C-10.65422355 5.36151123 -18.15949842 5.894308 -26 10 C-26 9.34 -26 8.68 -26 8 C-17.4785472 3.04206383 -9.55515438 3.60506825 0 4 C0 2.68 0 1.36 0 0 Z " fill="#0D4CDE" transform="translate(109,142)"/>
<path d="M0 0 C1.76949095 -0.10815225 3.54087487 -0.18566083 5.3125 -0.25 C6.29863281 -0.29640625 7.28476563 -0.3428125 8.30078125 -0.390625 C11 0 11 0 14 4 C8.72 4 3.44 4 -2 4 C-1.34 2.68 -0.68 1.36 0 0 Z " fill="#0653E3" transform="translate(93,95)"/>
<path d="M0 0 C-0.83192871 0.34780518 -0.83192871 0.34780518 -1.68066406 0.70263672 C-4.20437408 1.75866845 -6.72719316 2.81681252 -9.25 3.875 C-10.12269531 4.23980469 -10.99539062 4.60460937 -11.89453125 4.98046875 C-12.73886719 5.33496094 -13.58320312 5.68945312 -14.453125 6.0546875 C-15.22817383 6.37937012 -16.00322266 6.70405273 -16.80175781 7.03857422 C-18.90683065 7.95925135 -20.95518887 8.95315446 -23 10 C-23.66 9.34 -24.32 8.68 -25 8 C-21.89660564 6.6856685 -18.79215432 5.37385219 -15.6875 4.0625 C-14.80642578 3.68931641 -13.92535156 3.31613281 -13.01757812 2.93164062 C-12.17001953 2.57392578 -11.32246094 2.21621094 -10.44921875 1.84765625 C-9.66893311 1.51773682 -8.88864746 1.18781738 -8.0847168 0.84790039 C-3.29749974 -1.09916658 -3.29749974 -1.09916658 0 0 Z " fill="#4CA2FA" transform="translate(81,105)"/>
<path d="M0 0 C5.1373167 0.40007422 10.3356447 1.82330086 15 4 C14.01 4.33 13.02 4.66 12 5 C12 5.66 12 6.32 12 7 C11.44828125 6.70351562 10.8965625 6.40703125 10.328125 6.1015625 C7.83876712 4.92371196 5.3939116 4.14034283 2.75 3.375 C1.85796875 3.11460938 0.9659375 2.85421875 0.046875 2.5859375 C-0.62859375 2.39257812 -1.3040625 2.19921875 -2 2 C-1.34 1.34 -0.68 0.68 0 0 Z " fill="#3B87F1" transform="translate(103,88)"/>
<path d="M0 0 C0.89332031 0.56847656 1.78664063 1.13695313 2.70703125 1.72265625 C3.60808594 2.28855469 4.50914063 2.85445313 5.4375 3.4375 C6.12457031 3.88222656 6.81164062 4.32695313 7.51953125 4.78515625 C5.10245219 5.63792347 3.87949674 5.9060352 1.4140625 5.078125 C0.72699219 4.71332031 0.03992188 4.34851563 -0.66796875 3.97265625 C-1.36277344 3.61558594 -2.05757813 3.25851563 -2.7734375 2.890625 C-4.48046875 1.78515625 -4.48046875 1.78515625 -5.48046875 -0.21484375 C-2.48046875 -1.21484375 -2.48046875 -1.21484375 0 0 Z " fill="#1B4BDA" transform="translate(74.48046875,77.21484375)"/>
<path d="M0 0 C-1.15173355 2.46800047 -2.04783565 4.04783565 -4 6 C-6.125 5.625 -6.125 5.625 -8 5 C-3.375 0 -3.375 0 0 0 Z " fill="#0F59EC" transform="translate(41,124)"/>
<path d="M0 0 C1.32 0.66 2.64 1.32 4 2 C3.34 5.3 2.68 8.6 2 12 C1.67 12 1.34 12 1 12 C0.83723958 9.98177083 0.67447917 7.96354167 0.51171875 5.9453125 C0.12606964 3.60480784 0.12606964 3.60480784 -3 2 C-2.01 2 -1.02 2 0 2 C0 1.34 0 0.68 0 0 Z " fill="#41C1FC" transform="translate(141,29)"/>
<path d="M0 0 C4 1 4 1 4 1 Z " fill="#FFFFFF" transform="translate(156,184)"/>
<path d="M0 0 C4 1 4 1 4 1 Z " fill="#FFFFFF" transform="translate(32,184)"/>
<path d="M0 0 C1 4 1 4 1 4 Z " fill="#FFFFFF" transform="translate(184,156)"/>
<path d="M0 0 C1 4 1 4 1 4 Z " fill="#FFFFFF" transform="translate(184,33)"/>
<path d="M0 0 C1 4 1 4 1 4 Z " fill="#FFFFFF" transform="translate(7,32)"/>
<path d="M0 0 C4 1 4 1 4 1 Z " fill="#FFFFFF" transform="translate(158,9)"/>
<path d="M0 0 C4 1 4 1 4 1 Z " fill="#FFFFFF" transform="translate(30,9)"/>
<path d="M0 0 C3 1 3 1 3 1 Z " fill="#FFFFFF" transform="translate(160,183)"/>
<path d="M0 0 C3 1 3 1 3 1 Z " fill="#FFFFFF" transform="translate(29,183)"/>
<path d="" fill="#FFFFFF" transform="translate(0,0)"/>
<path d="" fill="#FFFFFF" transform="translate(0,0)"/>
<path d="" fill="#FFFFFF" transform="translate(0,0)"/>
<path d="" fill="#FFFFFF" transform="translate(0,0)"/>
<path d="M0 0 C2 1 2 1 2 1 Z " fill="#FFFFFF" transform="translate(163,182)"/>
<path d="M0 0 C2 1 2 1 2 1 Z " fill="#FFFFFF" transform="translate(27,182)"/>
<path d="M0 0 C2 1 2 1 2 1 Z " fill="#FFFFFF" transform="translate(25,181)"/>
<path d="" fill="#FFFFFF" transform="translate(0,0)"/>
<path d="" fill="#FFFFFF" transform="translate(0,0)"/>
<path d="" fill="#FFFFFF" transform="translate(0,0)"/>
<path d="" fill="#FFFFFF" transform="translate(0,0)"/>
<path d="" fill="#FFFFFF" transform="translate(0,0)"/>
<path d="" fill="#FFFFFF" transform="translate(0,0)"/>
<path d="" fill="#FFFFFF" transform="translate(0,0)"/>
<path d="" fill="#FFFFFF" transform="translate(0,0)"/>
<path d="" fill="#FFFFFF" transform="translate(0,0)"/>
<path d="" fill="#FFFFFF" transform="translate(0,0)"/>
<path d="" fill="#FFFFFF" transform="translate(0,0)"/>
<path d="" fill="#FFFFFF" transform="translate(0,0)"/>
<path d="" fill="#FFFFFF" transform="translate(0,0)"/>
<path d="M0 0 C2 1 2 1 2 1 Z " fill="#FFFFFF" transform="translate(164,11)"/>
<path d="M0 0 C2 1 2 1 2 1 Z " fill="#FFFFFF" transform="translate(26,11)"/>
<path d="M0 0 C2 1 2 1 2 1 Z " fill="#FFFFFF" transform="translate(162,10)"/>
<path d="M0 0 C2 1 2 1 2 1 Z " fill="#FFFFFF" transform="translate(28,10)"/>
<path d="" fill="#FFFFFF" transform="translate(0,0)"/>
<path d="" fill="#FFFFFF" transform="translate(0,0)"/>
<path d="" fill="#FFFFFF" transform="translate(0,0)"/>
<path d="" fill="#FFFFFF" transform="translate(0,0)"/>
<path d="" fill="#FFFFFF" transform="translate(0,0)"/>
<path d="" fill="#FFFFFF" transform="translate(0,0)"/>
<path d="" fill="#FFFFFF" transform="translate(0,0)"/>
<path d="" fill="#FFFFFF" transform="translate(0,0)"/>
<path d="" fill="#FFFFFF" transform="translate(0,0)"/>
<path d="" fill="#FFFFFF" transform="translate(0,0)"/>
<path d="" fill="#FFFFFF" transform="translate(0,0)"/>
<path d="" fill="#FFFFFF" transform="translate(0,0)"/>
<path d="" fill="#FFFFFF" transform="translate(0,0)"/>
<path d="" fill="#FFFFFF" transform="translate(0,0)"/>
<path d="" fill="#FFFFFF" transform="translate(0,0)"/>
<path d="" fill="#FFFFFF" transform="translate(0,0)"/>
<path d="" fill="#FFFFFF" transform="translate(0,0)"/>
<path d="" fill="#FFFFFF" transform="translate(0,0)"/>
<path d="" fill="#FFFFFF" transform="translate(0,0)"/>
<path d="" fill="#FFFFFF" transform="translate(0,0)"/>
<path d="" fill="#FFFFFF" transform="translate(0,0)"/>
<path d="" fill="#FFFFFF" transform="translate(0,0)"/>
</svg>
